<?xml version="1.0" standalone="no"?>
<!DOCTYPE svg PUBLIC "-//W3C//DTD SVG 20010904//EN"
 "http://www.w3.org/TR/2001/REC-SVG-20010904/DTD/svg10.dtd">
<svg version="1.0" xmlns="http://www.w3.org/2000/svg"
 width="992.000000pt" height="992.000000pt" viewBox="0 0 992.000000 992.000000"
 preserveAspectRatio="xMidYMid meet">
<metadata>
Created by potrace 1.14, written by Peter Selinger 2001-2017
</metadata>
<g transform="translate(0.000000,992.000000) scale(0.100000,-0.100000)"
fill="#000000" stroke="none">
<path d="M0 6321 l0 -3440 38 -1 c48 -1 65 -1 130 0 29 0 57 -2 62 -5 6 -3 10
-2 10 3 0 5 19 6 43 3 23 -4 61 -4 83 -1 23 3 50 3 60 -1 11 -3 30 -3 44 1 14
4 34 4 44 0 11 -4 37 -3 58 0 21 4 41 4 43 0 3 -4 20 -4 39 0 19 4 39 4 45 0
7 -4 32 -4 56 0 25 4 45 4 45 0 0 -4 20 -4 43 0 24 3 52 3 62 0 10 -3 38 -3
62 0 23 4 43 4 43 0 0 -4 18 -4 40 0 22 4 43 4 45 0 3 -4 20 -4 39 0 19 4 37
5 40 2 7 -7 164 -4 176 3 6 3 10 2 10 -3 0 -5 17 -6 40 -2 22 4 40 4 40 0 0
-4 18 -4 40 0 22 4 40 4 40 0 0 -4 18 -4 40 0 22 4 40 4 40 0 0 -4 18 -4 40 0
22 4 40 4 40 0 0 -4 18 -4 40 0 22 4 40 4 40 0 0 -4 18 -4 40 0 22 4 40 4 40
0 0 -9 62 0 77 12 8 7 10 16 4 26 -5 9 -6 23 -1 32 5 9 5 22 0 30 -5 8 -5 21
0 30 5 9 5 22 0 30 -5 8 -5 21 0 30 5 9 5 22 0 30 -5 8 -5 21 0 30 5 9 5 22 0
30 -5 8 -5 21 0 30 5 9 5 22 0 30 -5 8 -5 21 0 30 5 9 5 22 0 30 -5 8 -5 21 0
30 5 9 5 22 0 30 -5 8 -5 21 0 30 5 9 5 22 0 30 -5 8 -5 21 0 30 5 9 5 22 1
29 -5 7 -5 29 -1 50 4 21 3 47 -1 59 -5 12 -4 24 1 27 6 3 6 15 0 29 -5 13 -6
27 -3 30 8 8 9 76 1 76 -4 0 -3 14 2 30 5 17 5 30 0 30 -5 0 -5 13 0 30 5 17
5 30 0 30 -5 0 -5 13 0 30 5 17 5 30 0 30 -5 0 -5 13 0 30 5 17 5 30 0 30 -4
0 -5 15 -1 33 4 17 4 46 1 62 -4 17 -3 37 1 46 4 8 4 21 -1 29 -5 8 -5 21 0
30 5 9 5 22 0 30 -5 8 -5 21 0 30 5 9 5 22 0 30 -5 8 -5 21 0 30 5 9 5 22 0
30 -5 8 -5 21 0 30 5 9 5 22 0 30 -5 8 -5 21 0 30 5 9 5 22 0 30 -5 8 -5 21 0
30 5 9 5 22 0 30 -5 8 -5 21 0 30 5 9 5 22 0 30 -5 8 -5 21 0 30 5 9 5 22 0
30 -5 8 -5 21 0 30 5 9 5 22 0 30 -5 8 -5 21 0 30 5 9 5 22 1 28 -4 7 -5 35
-1 62 4 27 3 55 -1 62 -4 6 -4 19 1 28 5 9 5 22 0 30 -5 8 -5 21 0 30 5 9 5
22 0 30 -5 8 -5 21 0 30 5 9 5 22 0 30 -5 8 -5 21 0 30 5 9 5 22 0 30 -5 8 -5
21 0 30 5 9 5 22 0 30 -5 8 -5 21 0 30 5 9 5 22 0 30 -5 8 -5 21 0 30 5 9 5
22 0 30 -5 8 -5 21 0 30 5 9 5 22 0 30 -5 8 -5 21 0 30 5 9 5 22 0 30 -5 8 -5
21 0 30 4 8 4 22 0 31 -5 8 -5 21 0 28 4 8 4 27 0 42 -5 16 -5 29 0 29 5 0 5
13 0 30 -5 17 -6 30 -2 30 4 0 7 43 7 95 0 52 -3 95 -7 95 -4 0 -3 14 2 30 5
17 6 30 2 30 -4 0 -7 16 -7 35 0 19 3 35 7 35 4 0 3 14 -2 30 -5 17 -5 30 0
30 5 0 5 12 1 28 -7 28 -6 75 3 99 3 7 1 13 -4 13 -5 0 -5 13 0 30 5 16 5 32
0 35 -4 3 -4 21 0 40 4 19 4 35 0 35 -5 0 -5 14 0 30 5 17 5 30 0 30 -5 0 -5
13 0 30 5 17 5 30 0 30 -5 0 -5 13 0 30 5 17 5 30 0 30 -5 0 -5 13 0 30 5 16
5 32 0 35 -4 3 -4 21 0 40 4 19 4 35 0 35 -5 0 -5 14 0 30 5 19 5 30 -1 30 -6
0 -7 5 -4 10 9 14 10 103 2 116 -3 5 -2 16 3 24 5 8 5 21 0 30 -5 9 -5 22 0
29 4 8 4 27 0 42 -5 16 -5 29 0 29 5 0 5 13 0 30 -5 17 -5 30 0 30 5 0 5 13 0
30 -5 17 -5 30 0 30 5 0 5 13 0 30 -5 17 -5 30 0 30 5 0 5 13 0 30 -5 17 -5
30 0 30 5 0 5 13 0 30 -5 17 -5 30 0 30 5 0 5 13 0 30 -5 17 -5 30 0 30 5 0 5
13 0 30 -5 17 -5 30 0 30 5 0 5 13 0 30 -5 17 -5 30 0 30 5 0 5 13 0 30 -5 17
-5 30 0 30 5 0 5 13 0 30 -5 17 -5 30 0 30 5 0 5 13 0 30 -5 17 -5 30 0 30 5
0 5 13 0 30 -5 17 -5 32 0 35 5 3 6 15 0 29 -4 12 -4 29 0 36 5 8 5 21 0 30
-5 9 -5 22 0 30 5 8 4 22 -2 33 -9 18 -7 19 16 15 15 -3 29 -2 31 3 3 4 18 4
34 -1 16 -4 32 -6 35 -3 3 4 29 5 58 4 29 -1 62 -1 73 -1 11 1 26 1 33 1 6 -1
20 -1 30 -1 9 0 26 0 37 0 11 -1 26 -1 33 -1 25 2 38 2 90 0 29 -1 55 0 58 4
3 3 18 1 34 -3 16 -4 31 -6 34 -3 7 8 105 7 113 -1 3 -3 13 -1 22 4 10 5 23 5
30 0 8 -4 27 -4 42 0 16 5 29 5 29 0 0 -5 13 -5 29 0 16 4 32 6 34 4 7 -7 106
-9 112 -2 4 3 19 2 35 -2 16 -4 31 -6 34 -3 3 4 29 5 58 4 29 -1 62 -1 73 -1
11 1 26 1 33 1 6 -1 20 -1 30 -1 9 0 26 0 37 0 11 -1 26 -1 33 -1 25 2 38 2
90 0 29 -1 55 0 58 4 3 3 18 1 34 -3 16 -4 31 -6 34 -3 7 8 105 7 113 0 3 -3
16 -2 29 3 13 5 26 6 29 0 3 -5 18 -5 35 0 17 5 30 5 30 0 0 -5 12 -5 28 -1
15 4 38 5 52 1 14 -3 42 -3 62 0 20 4 42 4 49 0 6 -4 25 -4 40 0 16 5 31 5 34
0 3 -5 15 -6 29 0 12 4 29 4 36 0 8 -5 21 -5 30 0 9 5 22 5 28 1 7 -4 35 -5
62 -1 27 4 55 3 61 -1 7 -4 25 -3 40 1 16 5 31 5 34 0 3 -5 15 -6 29 0 12 4
29 4 36 0 8 -5 21 -5 30 0 9 5 22 5 28 1 7 -4 35 -5 62 -1 27 4 55 3 62 -1 6
-4 19 -4 28 1 9 5 22 5 29 0 8 -4 27 -4 42 0 16 5 29 5 29 0 0 -5 13 -5 29 0
16 4 32 6 34 4 7 -7 106 -9 112 -2 4 3 19 2 35 -2 16 -4 31 -6 34 -3 3 4 29 5
58 4 29 -1 62 -1 73 -1 28 2 35 1 73 -3 18 -2 35 0 38 5 3 4 16 3 29 -2 13 -5
27 -6 29 -1 7 10 54 2 62 -11 4 -5 6 -40 5 -76 -1 -37 -1 -83 0 -102 0 -19 1
-42 0 -50 -1 -12 -1 -115 0 -155 0 -13 0 -134 0 -160 -1 -11 0 -63 0 -115 0
-52 0 -102 0 -110 -1 -8 -1 -31 0 -50 1 -19 1 -42 0 -50 -1 -12 -1 -115 0
-155 0 -13 0 -134 0 -160 -1 -11 0 -63 0 -115 0 -52 0 -102 0 -110 -1 -8 -1
-31 0 -50 1 -19 1 -42 0 -50 -1 -12 -1 -115 0 -155 0 -13 0 -134 0 -160 -1
-11 0 -63 0 -115 0 -52 0 -102 0 -110 -1 -8 -1 -31 0 -50 1 -19 1 -42 0 -50
-1 -12 -1 -115 0 -155 0 -13 0 -134 0 -160 -1 -11 0 -63 0 -115 0 -52 0 -102
0 -110 -1 -8 -1 -31 0 -50 1 -19 1 -41 0 -47 -2 -30 -2 -299 -1 -333 1 -14 2
-29 1 -35 0 -5 -2 -36 -3 -68 -2 -31 -1 -57 2 -57 3 0 3 -31 0 -70 -3 -38 -3
-70 0 -70 6 0 3 -129 -4 -146 -3 -8 -1 -16 5 -19 5 -4 7 -10 4 -15 -3 -5 -6
-44 -6 -87 1 -43 1 -107 1 -143 0 -92 0 -120 3 -163 1 -21 0 -40 -4 -43 -4 -2
-3 -22 1 -44 4 -21 5 -42 2 -44 -6 -7 -8 -116 -2 -116 3 0 3 -31 0 -70 -3 -38
-3 -70 0 -70 6 0 3 -129 -4 -146 -3 -8 -1 -16 5 -19 5 -4 7 -10 4 -15 -5 -9
-7 -84 -4 -225 1 -33 0 -64 -1 -70 -1 -5 -1 -14 0 -20 1 -5 3 -23 3 -40 2 -26
6 -30 39 -36 20 -3 42 -3 48 1 7 4 26 4 43 1 18 -4 50 -4 73 -1 22 4 49 3 60
0 10 -4 30 -4 44 0 14 4 34 4 44 0 11 -4 37 -3 58 0 21 4 41 4 43 0 3 -4 20
-4 39 0 19 4 39 4 45 0 7 -4 32 -4 56 0 25 4 45 4 45 0 0 -4 20 -4 43 0 24 3
52 3 62 0 10 -3 38 -3 62 0 23 4 43 4 43 0 0 -4 18 -4 40 0 22 4 43 4 45 0 3
-4 20 -4 39 0 19 4 37 5 40 2 7 -7 164 -4 176 3 6 3 10 2 10 -3 0 -5 17 -6 40
-2 22 4 40 4 40 0 0 -4 18 -4 40 0 22 4 40 4 40 0 0 -4 18 -4 40 0 22 4 40 4
40 0 0 -4 18 -4 40 0 22 4 40 4 40 0 0 -4 18 -4 40 0 22 4 40 4 40 0 0 -4 18
-4 40 0 23 4 40 3 40 -2 0 -5 4 -7 10 -3 5 3 42 6 82 5 157 -1 151 -3 146 51
-2 22 -1 39 2 39 4 0 4 157 0 168 -2 4 -1 121 0 130 1 4 1 23 0 42 -5 81 -5
120 0 120 3 0 3 40 0 90 -3 50 -3 90 0 90 4 0 4 156 -1 170 -1 3 -1 8 -1 11 2
16 4 287 3 314 -5 91 -5 145 -1 145 4 0 4 158 0 168 -2 4 -1 121 0 130 1 4 1
23 0 42 -5 81 -5 120 0 120 3 0 4 42 2 92 -4 135 -3 188 3 198 3 5 2 11 -2 13
-5 3 -6 46 -3 96 3 50 3 101 0 113 -4 13 -3 42 0 66 4 23 4 44 1 46 -3 2 -4
50 -1 106 3 56 2 104 -1 106 -4 2 -3 22 1 44 4 22 5 40 1 40 -3 0 -6 49 -6
110 0 60 2 110 5 110 4 0 4 152 0 170 -1 3 -1 30 0 60 1 70 1 72 0 153 0 37 2
72 5 78 4 5 2 9 -2 9 -5 0 -6 26 -3 58 3 31 3 73 0 92 -3 19 -3 51 0 70 3 19
3 51 0 70 -3 19 -3 70 0 112 3 42 3 87 0 100 -4 13 -3 42 0 66 4 23 4 44 1 46
-3 2 -4 45 -1 95 3 50 3 101 0 113 -4 13 -3 42 0 66 4 23 4 44 1 46 -3 2 -4
45 -1 95 3 50 3 101 0 113 -4 13 -3 42 0 66 4 23 4 44 1 46 -3 2 -4 45 -1 95
3 50 3 101 0 113 -4 13 -3 42 0 66 4 23 4 44 1 46 -3 2 -4 50 -1 106 3 56 2
104 -1 106 -4 2 -3 22 1 44 4 22 5 40 1 40 -3 0 -6 49 -6 110 0 60 2 110 5
110 4 0 4 152 0 170 -1 3 -1 30 0 60 1 70 1 72 0 153 0 37 2 72 5 78 4 5 2 9
-2 9 -5 0 -6 26 -3 58 3 31 3 73 0 92 -3 19 -3 51 0 70 3 19 3 51 0 70 -3 19
-3 70 0 112 3 42 3 87 0 100 -4 13 -3 42 0 66 4 23 3 45 -2 48 -4 3 -6 9 -3
13 2 5 4 53 4 107 0 54 0 109 0 122 l1 22 -3600 0 -3600 0 0 -3439z"/>
<path d="M2592 7202 c-31 -3 -33 -6 -32 -40 1 -20 1 -82 1 -137 -1 -55 0 -142
2 -193 1 -50 -2 -92 -6 -92 -5 0 -6 -4 -3 -9 4 -5 6 -49 6 -98 -1 -88 0 -124
3 -286 1 -48 -2 -87 -6 -87 -5 0 -6 -4 -3 -9 4 -5 6 -49 6 -98 -1 -88 0 -124
3 -286 1 -48 -2 -87 -6 -87 -5 0 -6 -4 -3 -9 4 -5 6 -49 6 -98 -1 -88 0 -124
3 -286 1 -48 -2 -87 -6 -87 -5 0 -6 -4 -3 -9 5 -7 8 -124 5 -191 -1 -8 -1 -42
0 -75 0 -33 1 -67 0 -75 0 -16 0 -250 0 -285 0 -11 0 -49 0 -85 -1 -36 -1 -72
0 -80 0 -8 0 -44 0 -80 -1 -36 -1 -72 0 -80 0 -8 0 -44 0 -80 -1 -36 -1 -72 0
-80 0 -8 0 -44 0 -80 -1 -36 -1 -72 0 -80 0 -8 0 -44 0 -80 -1 -36 -1 -72 0
-80 0 -8 0 -44 0 -80 -1 -36 -1 -72 0 -80 0 -8 0 -44 0 -80 -1 -36 -1 -72 0
-80 0 -8 0 -44 0 -80 -1 -36 -1 -72 0 -80 0 -8 0 -44 0 -80 -1 -36 -1 -72 0
-80 0 -8 0 -44 0 -80 -1 -36 -1 -72 0 -80 0 -8 0 -44 0 -80 -1 -36 -1 -72 0
-80 0 -8 0 -44 0 -80 -1 -36 -1 -72 0 -80 0 -8 0 -44 0 -80 -1 -36 -1 -72 0
-80 0 -8 0 -44 0 -80 -1 -36 0 -76 1 -90 1 -14 2 -32 1 -40 -1 -56 0 -270 2
-343 1 -48 -2 -87 -6 -87 -5 0 -6 -4 -3 -9 3 -4 5 -48 5 -97 0 -49 1 -109 1
-134 1 -25 2 -89 3 -143 1 -53 -2 -97 -6 -97 -5 0 -6 -4 -3 -9 3 -4 5 -48 5
-97 0 -49 1 -109 1 -134 1 -25 2 -89 3 -143 1 -53 -2 -97 -6 -97 -5 0 -6 -4
-3 -9 3 -4 5 -48 5 -97 0 -49 1 -109 2 -134 1 -25 1 -49 1 -55 0 -5 -1 -80 0
-165 0 -85 -1 -165 -1 -178 -1 -22 2 -22 78 -21 44 1 84 -2 90 -5 6 -4 11 -3
11 2 0 6 8 8 18 6 29 -7 222 -9 222 -2 0 3 8 4 18 2 25 -7 222 -10 222 -4 0 3
30 4 67 2 38 -1 91 -2 118 -1 28 0 57 0 65 0 8 -1 33 -1 55 0 22 1 47 1 55 0
41 -3 124 0 131 4 4 3 10 2 12 -2 3 -5 43 -6 89 -3 45 3 111 3 146 0 34 -3 62
-2 62 2 0 3 8 4 18 2 29 -7 222 -9 222 -2 0 3 8 4 18 2 25 -7 222 -10 222 -4
0 3 30 4 67 2 38 -1 91 -2 118 -1 28 0 57 0 65 0 8 -1 33 -1 55 0 22 1 47 1
55 0 41 -3 124 0 131 4 4 3 10 2 12 -2 3 -5 43 -6 89 -3 45 3 111 3 146 0 34
-3 62 -2 62 2 0 3 8 4 18 2 29 -7 222 -9 222 -2 0 3 8 4 18 2 25 -7 222 -10
222 -4 0 3 30 4 67 2 38 -1 91 -2 118 -1 28 0 57 0 65 0 8 -1 33 -1 55 0 22 1
47 1 55 0 41 -3 124 0 131 4 4 3 10 2 12 -2 3 -5 43 -6 89 -3 45 3 111 3 146
0 34 -3 62 -2 62 2 0 3 8 4 18 2 29 -7 222 -9 222 -2 0 3 8 4 18 2 25 -7 222
-10 222 -4 0 3 30 4 67 2 38 -1 91 -2 118 -1 28 0 57 0 65 0 8 -1 33 -1 55 0
22 1 47 1 55 0 41 -3 124 0 131 4 4 3 10 2 12 -2 3 -5 43 -6 89 -3 45 3 111 3
146 0 34 -3 62 -2 62 2 0 3 8 4 18 2 29 -7 222 -9 222 -2 0 3 8 4 18 2 25 -7
222 -10 222 -4 0 3 30 4 67 2 38 -1 91 -2 118 -1 28 0 57 0 65 0 8 -1 33 -1
55 0 22 1 47 1 55 0 41 -3 124 0 131 4 4 3 10 2 12 -2 3 -5 43 -6 89 -3 45 3
111 3 146 0 34 -3 62 -2 62 2 0 3 8 4 18 2 33 -8 222 -9 222 -1 0 5 4 5 10 2
5 -3 76 -5 157 -5 82 1 162 1 179 0 29 0 32 3 36 34 2 19 1 42 -2 51 -3 10 -3
40 0 67 4 27 3 51 -2 54 -5 3 -6 9 -3 14 3 4 5 59 4 121 0 63 1 125 1 139 1
14 2 30 2 35 -2 123 -3 252 -1 260 1 6 1 14 0 19 -1 4 -2 63 -1 130 0 66 0
157 0 201 0 44 0 103 1 130 0 28 0 55 0 60 0 6 0 53 -1 105 0 52 0 140 0 194
-1 54 -3 102 -5 107 -3 4 -1 10 5 14 6 4 8 10 5 15 -5 8 -6 60 -4 233 0 6 0
35 0 62 0 28 0 59 0 70 0 11 0 56 0 100 0 44 0 85 0 90 0 6 0 33 0 60 0 28 0
57 0 65 0 8 0 69 -1 135 -1 66 0 125 1 130 1 6 1 14 0 19 -1 4 -2 63 -1 130 0
66 0 157 0 201 0 44 0 103 1 130 0 28 0 55 0 60 0 6 0 53 -1 105 0 52 0 140 0
194 -1 54 -3 102 -5 107 -3 4 -1 10 5 14 6 4 8 10 5 15 -5 8 -6 60 -4 233 0 6
0 35 0 62 0 28 0 59 0 70 0 11 0 56 0 100 0 44 0 85 0 90 0 6 0 33 0 60 0 28
0 57 0 65 0 8 0 69 -1 135 -1 66 0 125 1 130 1 6 1 14 0 19 -1 4 -2 63 -1 130
0 66 0 157 0 201 0 44 0 103 1 130 0 28 0 55 0 60 0 6 0 53 -1 105 0 52 0 140
0 194 -1 54 -3 102 -5 107 -3 4 -1 10 5 14 6 4 8 10 5 15 -5 8 -6 60 -4 233 0
6 0 35 0 62 0 28 0 59 0 70 0 11 0 56 0 100 0 44 0 85 0 90 0 6 0 33 0 60 0
28 0 57 0 65 0 8 0 69 -1 135 -1 66 0 125 1 130 1 6 1 14 0 19 -5 25 -2 256 3
265 4 5 2 12 -3 15 -5 3 -7 15 -4 25 5 18 -1 20 -69 21 -40 1 -80 1 -88 1 -45
-1 -161 -1 -168 0 -4 1 -11 1 -17 0 -11 -2 -290 -2 -302 0 -5 1 -12 1 -18 0
-11 -2 -290 -2 -302 0 -5 1 -12 1 -18 0 -11 -2 -290 -2 -302 0 -5 1 -12 1 -18
0 -11 -2 -290 -2 -302 0 -5 1 -12 1 -18 0 -5 -1 -73 -2 -150 -2 l-141 1 -3
-28 c-1 -15 -2 -34 -2 -42 2 -18 0 -58 -3 -85 -1 -11 1 -35 5 -53 4 -17 3 -34
-1 -37 -5 -3 -5 -18 0 -34 4 -15 4 -34 0 -41 -4 -7 -4 -26 0 -41 5 -16 5 -31
0 -34 -4 -3 -5 -20 -1 -37 4 -18 6 -42 5 -53 -1 -11 -3 -32 -3 -47 -1 -16 -1
-40 -2 -55 0 -16 -2 -37 -3 -48 -1 -11 1 -35 5 -53 4 -17 3 -34 -1 -37 -4 -3
-4 -21 0 -40 4 -19 4 -35 0 -35 -4 0 -4 -16 0 -35 4 -19 4 -37 0 -40 -4 -3 -5
-20 -1 -37 4 -18 6 -42 5 -53 -1 -11 -3 -32 -3 -47 -1 -16 -1 -40 -2 -55 0
-16 -2 -37 -3 -48 -1 -11 1 -35 5 -53 4 -17 3 -34 -1 -37 -5 -3 -5 -18 0 -34
4 -15 4 -34 0 -41 -4 -7 -4 -26 0 -41 5 -16 5 -31 0 -34 -4 -3 -5 -20 -1 -37
4 -18 6 -42 5 -53 -1 -11 -3 -32 -3 -47 -1 -16 -1 -40 -2 -55 0 -16 -2 -37 -3
-48 -1 -11 1 -35 5 -53 4 -17 3 -34 -1 -37 -4 -3 -4 -21 0 -40 4 -19 4 -35 0
-35 -4 0 -4 -16 0 -35 4 -19 4 -37 0 -40 -4 -3 -5 -20 -1 -37 4 -18 6 -42 5
-53 -1 -11 -3 -32 -3 -47 -1 -16 -1 -40 -2 -55 0 -16 -2 -37 -3 -48 -1 -11 1
-35 5 -53 4 -17 3 -34 -1 -37 -5 -3 -5 -18 0 -34 4 -15 4 -34 0 -41 -4 -7 -4
-26 0 -41 5 -16 5 -31 0 -34 -4 -3 -4 -20 0 -39 4 -19 4 -39 0 -46 -4 -7 -4
-27 0 -46 4 -19 4 -36 0 -39 -4 -3 -4 -21 0 -40 4 -19 4 -37 0 -40 -5 -3 -5
-19 0 -35 5 -16 5 -32 0 -35 -4 -3 -4 -20 0 -39 4 -19 4 -39 0 -46 -4 -7 -4
-27 0 -46 4 -19 4 -36 0 -39 -4 -3 -4 -21 0 -40 4 -19 4 -37 0 -40 -5 -3 -5
-19 0 -35 5 -16 5 -32 0 -35 -4 -3 -4 -20 0 -39 4 -19 4 -39 0 -46 -4 -7 -4
-27 0 -46 4 -19 4 -36 0 -39 -4 -3 -4 -21 0 -40 4 -19 4 -37 0 -40 -5 -3 -5
-19 0 -35 5 -16 5 -32 0 -35 -4 -3 -4 -20 0 -39 4 -19 4 -39 0 -46 -4 -7 -4
-27 0 -46 4 -19 4 -36 0 -39 -4 -3 -4 -21 0 -40 4 -19 4 -37 0 -40 -5 -3 -5
-19 0 -35 5 -16 5 -32 0 -35 -4 -3 -4 -20 0 -39 4 -19 4 -39 0 -46 -4 -7 -4
-27 0 -46 4 -19 4 -36 0 -39 -4 -3 -4 -21 0 -40 4 -19 4 -37 0 -40 -5 -3 -5
-19 0 -35 5 -16 5 -32 0 -35 -4 -3 -4 -20 0 -39 4 -19 4 -39 0 -46 -4 -7 -4
-27 0 -46 4 -19 4 -36 0 -39 -4 -3 -4 -21 0 -40 4 -19 4 -37 0 -40 -5 -3 -5
-19 0 -35 5 -16 5 -32 0 -35 -4 -3 -4 -20 0 -39 4 -19 4 -39 0 -46 -4 -7 -4
-26 0 -44 3 -17 3 -43 -1 -58 -4 -15 -5 -29 -2 -31 8 -9 10 -57 2 -62 -4 -3
-4 -18 1 -34 4 -16 6 -31 4 -33 -2 -2 -3 -33 -3 -68 -1 -69 -1 -100 -4 -168
-1 -23 1 -42 4 -42 4 0 3 -15 -1 -34 -5 -21 -3 -39 3 -45 15 -15 -32 -31 -59
-20 -12 4 -24 6 -27 3 -4 -4 -120 -8 -142 -4 -5 1 -46 1 -90 0 -44 -1 -87 -1
-95 -1 -48 2 -104 0 -111 -5 -5 -3 -9 -1 -9 4 0 5 -20 6 -45 2 -25 -4 -45 -4
-45 0 0 4 -18 4 -40 0 -22 -4 -42 -5 -45 -2 -3 3 -42 4 -87 3 -46 -1 -90 -2
-98 -2 -48 2 -104 0 -111 -5 -5 -3 -9 -1 -9 4 0 5 -20 6 -45 2 -25 -4 -45 -4
-45 0 0 4 -18 4 -40 0 -22 -4 -42 -5 -45 -2 -3 3 -42 4 -87 3 -46 -1 -90 -2
-98 -2 -48 2 -104 0 -111 -5 -5 -3 -9 -1 -9 4 0 5 -20 6 -45 2 -25 -4 -45 -4
-45 0 0 4 -18 4 -40 0 -22 -4 -42 -5 -45 -2 -3 3 -42 4 -87 3 -46 -1 -90 -2
-98 -2 -48 2 -104 0 -111 -5 -5 -3 -9 -1 -9 4 0 5 -20 6 -45 2 -25 -4 -45 -4
-45 0 0 4 -18 4 -40 0 -22 -4 -42 -5 -45 -2 -3 3 -42 4 -87 3 -46 -1 -90 -2
-98 -2 -48 2 -104 0 -111 -5 -5 -3 -9 -1 -9 4 0 5 -20 6 -45 2 -25 -4 -45 -4
-45 0 0 4 -18 4 -40 0 -22 -4 -42 -5 -44 -1 -2 3 -38 4 -80 1 -42 -3 -84 -2
-93 1 -9 3 -33 3 -52 -1 -20 -3 -53 -3 -73 0 -21 4 -38 3 -38 -2 0 -5 -5 -6
-10 -3 -6 3 -40 6 -78 5 -37 -1 -76 -1 -87 0 -11 1 -27 1 -35 1 -8 -1 -28 -1
-45 0 -16 0 -37 0 -45 -1 -13 0 -55 1 -87 3 -12 0 -25 47 -13 47 4 0 4 16 0
35 -4 19 -4 35 0 35 4 0 4 18 0 40 -4 22 -4 43 1 45 4 3 4 19 -1 35 -5 16 -5
32 -1 35 4 2 5 25 1 50 -4 25 -4 45 1 45 4 0 3 16 -1 35 -4 19 -4 35 0 35 4 0
4 18 0 40 -4 22 -4 43 1 45 4 3 4 18 -1 34 -4 16 -6 32 -3 35 8 7 7 101 0 113
-3 5 -2 15 3 23 4 7 4 24 0 36 -6 14 -5 26 0 29 5 3 5 18 0 35 -5 17 -5 30 0
30 5 0 5 13 0 30 -5 17 -5 30 0 30 5 0 5 13 0 30 -5 17 -5 30 0 30 5 0 5 13 0
30 -5 17 -5 30 0 30 5 0 5 13 0 30 -5 17 -5 30 0 30 5 0 5 13 0 30 -5 17 -5
30 0 30 5 0 5 13 0 30 -5 17 -5 30 0 30 5 0 5 13 0 30 -5 17 -5 30 0 30 5 0 5
13 0 30 -5 17 -5 30 0 30 5 0 5 13 0 30 -5 17 -5 30 0 30 5 0 5 13 0 30 -5 17
-5 30 0 30 5 0 5 13 0 30 -5 17 -5 30 0 30 5 0 5 13 0 30 -5 17 -5 30 0 30 5
0 5 13 0 30 -5 17 -5 30 0 30 5 0 5 13 0 30 -5 17 -5 30 0 30 5 0 5 13 0 30
-5 17 -5 32 0 35 5 3 6 15 0 29 -4 12 -4 29 0 36 5 8 6 18 3 23 -7 12 -9 117
-2 117 4 0 3 16 -1 35 -4 19 -4 35 0 35 4 0 4 18 0 40 -4 22 -4 43 1 45 4 3 4
19 -1 35 -5 16 -5 32 -1 35 4 2 5 25 1 50 -4 25 -4 45 1 45 4 0 3 16 -1 35 -4
19 -4 35 0 35 4 0 4 18 0 40 -4 22 -4 43 1 45 4 3 4 18 -1 34 -4 16 -5 32 -2
36 8 7 5 102 -3 115 -3 6 -3 10 2 10 4 0 8 29 8 65 0 36 -3 65 -7 65 -4 0 -3
14 2 30 5 17 5 30 0 30 -5 0 -5 13 0 30 5 17 5 30 0 30 -5 0 -5 13 0 30 5 17
5 30 0 30 -5 0 -5 13 0 30 5 17 5 30 0 30 -5 0 -5 13 0 30 5 17 6 30 2 30 -8
0 -7 74 1 87 3 5 2 15 -3 23 -5 8 -5 21 0 30 5 9 5 22 0 30 -5 8 -5 21 0 30 5
9 5 22 0 30 -5 8 -5 21 0 30 5 9 5 22 0 30 -5 8 -5 21 0 30 5 9 5 22 0 30 -5
8 -5 21 0 30 5 9 5 22 0 30 -5 8 -5 21 0 30 5 9 5 22 0 30 -5 8 -5 21 0 30 5
9 5 22 0 30 -5 8 -5 21 0 30 5 9 5 22 0 30 -5 8 -5 21 0 30 5 9 5 22 0 30 -5
8 -5 21 0 30 5 9 5 22 1 29 -5 7 -5 29 -1 49 3 21 3 49 -1 65 -4 15 -4 27 -1
27 4 0 7 29 7 65 0 36 -3 65 -7 65 -4 0 -3 14 2 30 5 17 5 30 0 30 -5 0 -5 13
0 30 5 17 5 30 0 30 -5 0 -5 13 0 30 5 17 5 30 0 30 -5 0 -5 13 0 30 5 17 5
30 0 30 -5 0 -5 13 0 30 5 17 6 30 2 30 -4 0 -6 19 -4 42 1 24 3 49 2 56 0 6
0 19 0 27 0 8 0 22 0 30 0 8 0 22 0 30 0 8 0 22 0 30 0 8 0 22 0 30 0 8 0 22
0 30 0 8 0 22 0 30 0 8 0 22 0 30 0 8 0 22 0 30 0 8 0 22 0 30 0 8 0 22 0 30
-1 8 0 49 1 91 1 82 -4 94 -41 95 -49 1 -236 0 -270 -2 -19 0 -39 -1 -45 -1
-14 1 -197 2 -270 1 -33 0 -85 0 -115 0 -30 0 -62 0 -70 0 -14 0 -142 0 -335
1 -49 1 -94 1 -100 1 -5 0 -32 0 -60 0 -27 -1 -84 -1 -125 -1 -121 0 -274 1
-290 1 -8 0 -38 -1 -67 -1 -28 -1 -55 0 -60 2 -4 2 -23 2 -41 0z"/>
</g>
</svg>
